<?xml version="1.0" encoding="UTF-8"?>
<svg id="Layer_1" data-name="Layer 1" xmlns="http://www.w3.org/2000/svg" viewBox="0 0 285.96 142.7">
  <path d="M264.74,91.2l.54-4.37-2.97-3.89.26-2.55c-7.37-7.09-13.06-15.54-18.32-14.94l-2.68-.35-5.49,4.5c-5.78,0-7.72-.73-10.05,3.22-1.41-1.07-3.55,3.01-5.59,6.32-1.36.35-2.72.52-4.08.48-1.32-.04-2.39,1.06-2.29,2.37l.17,2.16c.04.52-.4.95-.92.91l-1.02-.09c-.67-.06-1.27.43-1.35,1.1l-.48,3.94c-.08.63.34,1.2.96,1.36,2.95.79,4.07,3.74,4.04,8.06,0,.93,1.01,1.49,1.81,1.02,2.8-1.68,5.43-2.85,7.68-2.94.6-.02,1.14-.37,1.41-.9.19-.38.68-.5,1.03-.26,1.46,1.01,2.82,1.04,4.04-.19.27-.28.67-.42,1.05-.38,2.42.22,3.94-1.96,4.21-7.5.03-.69.4-1.32.97-1.71,3.17-2.17,4.08-5.12,4.85-8.35.12-.51-.53-.82-.86-.42-6.76,8.17-11.79,3.2-16.91,6.15-.25.14-.53-.11-.42-.37,2.4-5.54,4.82-9.92,7.32-9.02.57.2,1.19.05,1.54-.43,1.63-2.2,4.52-3.89,8.87-4.99.65-.16,1.33.11,1.69.66,1,1.52,2.48,3.09,4.32,4.71.78.69,1.1,1.77.8,2.77-.13.44.22.87.67.83.58-.05,1.06.45,1,1.03l-.68,6.21c-.06.59.29,1.14.85,1.32.62.2.94.88.7,1.48l-2.68,6.76c-2.62-.05-6.19,3.34-9.94,7.75-1.81,2.13-4.1,3.81-6.73,4.76-3.17,1.15-6.48,1.89-9.87,2.37-.93.13-1.63,1.03-1.54,1.97v.09c.05.43-.47.68-.79.38-5.74-5.41-9.57-7.45-12.27-6.01-2.58-8.73-7.34-11.85-12.66-13.52-.36-.11-.6-.46-.54-.83.66-3.93,4.03-5.24,2.62-8.76.44-.57.67-1.28.65-2.01l-.09-2.9c-.01-.42-.26-.8-.65-.97l-.59-.27c2.93-4.74,6.49-5.96,9.59-2.73.51.53,1.37.16,1.35-.57-.19-5.49,2.57-7.93,6.82-5.71.58.31,1.24-.21,1.07-.85-2.03-7.82,7.6-8.86,10.83-17.93.18-.51.8-.71,1.25-.4,5.84,4.06,15.92,6.04,23.51-.45.48-.41.01-1.2-.58-.97-13.24,5.02-4.54-10.5-28.72-18.13-1.36-.43-2.39-1.54-2.69-2.93l-1.34-6.29-.04,7.73c0,.42-.31.77-.73.83-1.63.25-2.74-.25-4.1-1.18-.65-.44-1.53.05-1.48.83.08,1.24.22,2.39.52,3.33.14.44-.11.91-.54,1.06-2,.68-3.29,1.26-3.15,2.26.05.34-.19.63-.54.62-4.57-.12-11.27,2.36-13.19,7.2-.23.59-.78.98-1.41,1.08-.68.11-1.26.36-1.76.71-.34.25-.79.22-1.1-.06-.96-.85-3.16-.3-5.72.65-1.08.4-2.23.62-3.39.6-1.39-.03-2.69.15-3.84.68-.54.25-1.18.06-1.51-.43-.52-.77-1.15-2.27-1.7-3.9-.25-.74-1.46-.7-1.48.09-.21,7.69-4.87,11.1-12.24,9.68-1.16-.22-2.3.47-2.57,1.62-6.48,27.67-11.47,28.29-12.65,37.88-.09.72-.76,1.25-1.48,1.16-3.96-.51-5.28-1.73-6.29-3.68-.34-.66-1.33-.6-1.6.09-.81,2.1-3.79.2-6.95-2.06-.81-.58-1.38-1.45-1.62-2.42-4.66-18.63-17.81-30.39-8.08-37.36.84-.6,1.65-1.24,2.31-2.03,1.54-1.82,3.22-3.04,5.32-2.54.69.16,1.43.15,2.1-.1,1.33-.5,2.46-.19,3.4.9.36.42,1.04.44,1.34-.03,2.13-3.35-1.41-13.74-5.03-21.11-.42-.86-1.72-.43-1.56.51.73,4.25,1.61,8.6,1.37,10.95-.09.94-1.01,1.54-1.92,1.31-7.19-1.83-12.66-1.05-15.4,2.06-.58.66-1.36,1.08-2.24,1.2-1.58.22-2.89.99-3.98,2.2-.33.37-.77.64-1.23.83-1.4.58-2.3,1.4-2.59,2.5-.15.58-.61,1.03-1.2,1.17-1.24.31-2.2,1.3-3.01,2.65-.38.63-1.08,1-1.81.95-1.38-.09-1.77.31-2.43,1.75-.43.95-1.4,1.56-2.43,1.47-6.68-.59-9.73-5.9-12.16-11.19-.31-.68-1.33-.4-1.25.33.32,2.96,1.27,6.66,2.85,10.2.51,1.14-.3,2.43-1.55,2.42l-2.31-.03c-.66.09-1.15.65-1.17,1.31-.13,5.59-1.02,7.91-3.62,5.17-.51-.54-1.22-.84-1.96-.77-2.68.24-3.06.26-3.84-1.25-.38-.73-1.01-1.28-1.77-1.59-2.13-.85-1.49-2.7.28-3.48.47-.21.87-.56,1.05-1.04,1.39-3.72,5.36-5.17,9.98-6.03.4-.08.73-.4.76-.81.12-1.76-1.27-3.8-.28-7.84.14-.57.79-.86,1.31-.57l.13.07c.74.41,1.67.13,2.05-.63l2.7-5.38c.2-.41-.06-.9-.51-.96-2.07-.28-2.85-.27-3.52,1.22-.15.34-.51.54-.89.5-3.13-.31-5.27,1.03-8.73,2.12-1.06.34-2.2.35-3.29.09l-2.42-.58c-1.25-.3-2.55-.18-3.8.14-3.59.92-4.94-4.15-3.58-11.44.08-.42-.46-.63-.7-.28-4.39,6.66-10.25,9.42-20.95,10.3-1.38.11-2.68-.69-3.19-1.98-.25-.65-.85-1.1-1.54-1.17l-3.56-.38c-.64-.07-1.04.69-.62,1.18,3.13,3.67,7.92,2.58,4,8.68-.3.47.19,1.04.69.81l1.97-.92c.62-.25,1.36-.15,1.82.33.86.89,1.89,1.06,3.08.53.44-.2.96,0,1.12.46l.62,1.81c.28.81,1.19,1.21,1.98.87,2.38-1.03,4.86-1.75,7.64-1.55.77.05,1.56-.26,1.95-.93.35-.62.76-.53,1.96-.33.5.09,1-.17,1.22-.63.05-.1.08-.42.19-.4,5.24,1.02,7.99-1.14,10.7-1.82.76-.19,1.52.37,1.56,1.15.08,1.32-.33,2.39-.66,3.37-.2.58-.1,1.27.89,1.1.15-.03.63-.26.67-.09,1.99,9.97-4.34,5.74-6.38,15.76-.08.4-1.8-.37-1.79,1.22,0,.38.28,1.18-.48.95-.69-.21-1.12-.01-1.16,1.39-.02.55-.91.56-.84-.13.48-4.64-4.85,1.89-4.24-.79.44-1.94-1.23-.68-.65-1.64.78-1.29-.49-1.34-1.19-1.2-1.64.33.13,1.77-.54,1.97-1.01.3-.41,1.13-1.2,1.13-1.34-.01-1.04,1.26-1.74,1.38-2.18.4-1.16,1.63-2.49,1.47-3.01-.37-5.37,4.62-.67,2.24.78-.39.05,1.31,1.55,1.35,2.23.06.51-1.72,1.39-1.7,2.04.04,2.09-1.46,3.41-1.48,1.99-.02,3.63-2.37,3.67-1.37.16,3.8,2.37,1.35,3.88,2.05,1.13.53,1.67-.17,2.71-2.03.32-.56,1.59-.67,1.77.45.37,2.36,1.94.45,2.17,1.61.33,1.66,1.61.75,1.74,1.56.47,2.78,2.53.2,2.98,1.85.62,2.28,1.99.34,2.72,1.1.4.41-.06,1.85,1.87,1.2.84-.28.13,1.63,2.06,2.04.3.06,1.84,2.59,1.61,3.59-.13.55-.51.58-.65.99-.37,1.09,1.68,2.57,1.23,3.55-.61,1.32-.87,1.1-.49,3.46.2,1.27-1.59.68-1.6,3.22,0,.31-1.83.96-.43,2.35,1.37,1.36-3.49,4.64-3.1,6.53.09.44,1.43-.03,1.34.86-.3,2.95-8.59,5.11-9.35,6.53-.22.41.85.99.85.99-2.89,3.31-11.57.83-15.96,1.1-.68.04-1.35-.14-1.97-.44-3.58-1.78-14.31-4.16-18.03-4.84-.89-.16-1.93-1.35-1.61-2.03,1.43-3.06-.63-2.3-.59-2.76.2-1.88-1.27-.6-.74-1.8.23-.53,2.37,1.09,2.27-1.85-.02-.6,1.33.7,1.97-.96.4-1.03,2.21,2.08,3.54-.34.39-.71,1.66.18,1.47-1.67-.11-1.07,2.07-.13,1.91-2.19-.03-.43.4-.75.79-.55,1.07.53,1.91.7,2.51.22.3-.24.68-.32,1.03-.16,2.6,1.22,1.77-1.6,4.29-.67.67,1.8-1.21,1.81-2.48,3.95-.39.66.34,1.54,1.01.98,0,0,3.83-3.63,4.14-2.58.68,2.31,1.41,2.25,2.79.36.14-.19.43-.11.46.12.1.82.49,1.35,1.09,1.68.31.17.69.42.71.77.07,1.2,1.1.5,1.22,1.18.25,1.37.64,2.01,2.11,1.17.6-.34,1.4-.18,1.79.4l.41.6c.12.18.02.42-.19.47-1.31.33-1.59,2-.1,2.12.02,2.52,2.58,2.56,1.7.02-.41-1.2,1.59-.05,1.09-2.69-.16-.83,1.33-.66.39-2.89-.53-1.27,1.47-.64.68-3.81-.32-1.29,1.56-.74.39-3.17-.24-.5.07-1.96.81-2.09.56-.1.44,1.41,1.09,1.6,1.11.33,2.62-1.61,3.66-1.45.61.1,2.16,1.75,2.5.38.52-2.13-2.49-1.27-2.61-2.1-.24-1.69-1.12-1.62-2.45-.77-.77.49.85-2.15-1.86-1.61-.73.15-3.56-4.33-3-10.11.26-2.67-.35-2.54-.91-2.1-.72.56-.46,2.45-.46,2.45-2.85.2-1.04,4.22-2.72,3.69-3.81-1.2-3.51.97-6.74,1.78.97-1.27,1.15-1.91.86-3.04-.14-.53.12-1.99-.29-2.38-.2-.19-.81-.13-1,.07-.42.46.14,2.5-.43,2.29-2.17-.82-1.99.89-.19,1.93.28.16.05.83-.26,1.06-1.29.98-2.53-4.27-3.9-3.68-1.34.58,2.14,3.23,2.19,4.49.04.98-.94,2.28-1.9,2.45-.89.15-1.38-1.22-2.31-1.33-2.84-.34-6.19-2.33-6.85-1.71-.75.71-.97,2.88-2,2.76-1.8-.21-1.78.2-2.55,1.23-.46.62-.94.65-1.05,1-.11.34.29,1.43.13,1.67-.26.39-1.34-.03-2.02.27-1.26.55-2.35,1.79-1.52,5.76.47,2.27-3-.62-2.07,2.89.42,1.58-2.81-.3-2.01,2.95.25,1.04-2.97,1.34.02,4.68.85.95-.89,2.23,1.5,2.65,1.01.18.6,1.83,2.49,2.39.88.26,2.37,2.22,4.4,3.88,2.04,1.66,4.86,2.18,6.98,2.36-3.71.74-7.21-.43-11.34-4.7-.83-.86-1.82.61-.7,1.53,2.5,2.07,2.63,2.66,3.23,3.22,1.75,1.62,4.77,2.15,8.22,2.21-2.18,1.05-6.36-.65-6.82-.05-.3.4.17.77.45,1.04,2.22,2.2,8.87-.34,11.47.52.74.25,1.28.85,1.27,1.64-.01.66.37.93.91.79.35-.09.72-.08,1.03.12l4.15,2.75c.52.35.57,1.09.1,1.5-.26.22-.39.55-.38.89,0,0,.26.83.04.89-1.11.29-1.85,2.15-.3,1.88,1.91-.34,1.53-2.87,3.53-4.23,2.65-1.8,7.98-2.63,10.47-4.39.61-.43.95-.43,1.8.3.2.17.45.29.71.3,3.01.15,4.02-1.76,8.87-2.59,1.53-.26,2.79-1.4,4.28-1.83.16-.05.3-.1.39-.15.54-.32.56-1.3,1.35-1.57,4.03-1.42,8.86-4.74,11.25-8.82.2-.35.69-.38.92-.05,1.9,2.74,3.4,5.55,3.71,8.58.09.92,1.13,1.42,1.92.94,5.17-3.16,4.79-7.49,10.34-9.21.7-.22,1.32-.7,1.55-1.39.09-.26.13-.53.13-.81-.02-1.65.42-2.77,1.77-4.35,1.41-1.65,1.36-4.15-.26-5.6-1.05-.94-2.26-1.7-3.57-2.2-.64-.24-1.23.44-.91,1.04l.51.78c.7,1.06.7,2.46-.08,3.46-.95,1.21-2.29,2.38-3.98,3.47-.59.38-1.39.22-1.77-.37h0c-.5-.76-1.41-1.13-2.3-.93-.69.16-1.4-.09-1.86-.64-1.24-1.48-2.06-3.15-2.57-4.97-.07-.24-.01-.49.14-.68,1.08-1.39,1.25-3.3.38-4.82-.39-.67-.81-1.32-1.27-1.97-.38-.53-.38-1.24.03-1.75.82-1.04,1.12-2.4.85-3.71-.74-3.59-4.82-7.92-3.01-8.57.36-.13,1.18.91,1.65,1.17.79.44,1.56.33,2.3.02.47-.2.7-.94,1.11-1.23.91-.66,1.57-.13,1.72-.66.31-1.07.37-1.28.73-1.57.55-.45,1.3.23,1.74.5.61.38,1.58.16,1.69-.55.16-1.07,1.21-1.76,2.25-1.5l7.33,1.83c.69.17,1.03.94.7,1.56-.36.69-.08,1.54.62,1.88,0,0,1.18.67,2.39,1.05.18.06.27.24.25.42-.07.55.12,1.09.5,1.48l.04.04c.51.52.76,1.24.68,1.97-.06.55.15,1.11.59,1.46,5.87,4.75,7.05,18.59,3.77,25.63-.43.93.07,2,1.07,2.27,4.21,1.11,7.09,2.96,10.48,6.43.6.61.36,1.65-.45,1.93l-.05.02c-1.44.5-1.91,2.27-.94,3.46,2.04,2.52,3.3,5.26,4.23,7.74.62,1.66,2.89,1.88,3.84.38l1.17-2.28c.36-.7.06-1.56-.66-1.89l-.04-.02c-.86-.39-1.08-1.51-.43-2.19,2.51-2.63,4.5-6.38,5.46-12.41.5-3.15,1.97-6.07,4.28-8.28l2.44-2.33c.75-.71,1.17-1.7,1.12-2.73-.08-1.49.42-3.09,1.47-4.53.65-.89,2-.84,2.62.06.74,1.08,2.33,1.13,3.14.09.55-.7,1.03-1.32,1.03-1.32.58-.53,1.44-.59,2.08-.15l.87.59c.58.39.78,1.14.49,1.77l-7.23,15.45c-2.05,4.38,1.37,9.37,6.19,9,3.98-.31,9.37-.52,11.94-.31,4.48.38,8.18.49,10.03,6.09.25.77,1.37.7,1.54-.1l.49-2.35c.11-.36.43-.62.81-.65,0,0,.67.06.84-.06.55-.41.99-.95,1.62-.67l.43.19c.41.31.97.31,1.38,0,.64-.49,1.58-.25,1.89.5h0c.28.68.93,1.13,1.66,1.15.49.02.91.33,1.07.79l.42,1.23c.22.64,1.13.57,1.26-.09.18-.87.28-1.9.3-2.96.02-.84.77-1.47,1.6-1.38,1,.11,2.02.01,3.05-.26.72-.19,1.47.18,1.69.89l1.67,5.26c.26.83,1.25,1.12,1.95.62,1.74-1.24,3.77-2.16,5.9-2.9,1.48-.52,3.09.11,3.92,1.44.42.67.97,1.41,1.61,2.19,1.66,2.04,4.24,3.16,6.86,2.86,4.79-.56,10.43-.2,16.8.92,17.81-8.07,24.8-26.23,20.52-31.5ZM28.15,102.1c1.13-1.1,4.01,3.46,7.66,4.82-3.1-.65-5.63-2.31-7.66-4.82ZM171.63,81.99c-.51.05-.98-.28-1.1-.78-.25-1.06-.63-2-1.44-2.49-.6-.36-1.01-.95-1.01-1.65v-3.24c0-.3.38-.44.57-.21l1.64,1.95c.39.46,1.13.18,1.14-.42.11-9.19,3.52-12.07,8.74-25.04.31-.77,1.4-.78,1.71,0l.42,1.05c.32.78,1.42.75,1.7-.04.78-2.16,1.91-3.96,3.48-4.84.37-.21.76.24.5.58-1.46,1.89-2.52,4.6-3.35,7.8-.25.95.27,1.94,1.19,2.26,2.78.96,5.9,3.02,9.3,5.96.56.48,1.42.36,1.8-.28,1.79-2.97,0-5.53,8.12-4.11.76.13,1.28-.75.8-1.35-2.79-3.59-5.87-4.25-9.35-2.32-.9.5-2.05.27-2.72-.51-3.37-3.89-.91-5.85,1.98-5.54.84.09,1.64-.44,1.76-1.28,1.43-9.97,21.17-11.63,22.67.62.3,2.42-.66,4.85-2.48,6.48-3.53,3.16-7.15,4.66-6.58,8.45.05.35-.23.67-.59.65-3.12-.12-5.14-.2-5.6,3.57-.1.82-.83,1.41-1.65,1.34l-2.71-.21c-.81-.06-1.6.21-2.21.74-3.29,2.86-5.4,7.14-6.03,12.54-2.93-.3-5.88.39-8.85,2.09-1.69-2.23-6.34-2.31-11.85-1.76ZM198.19,103.66h-1.46c-.55,0-1.08-.26-1.39-.72-.76-1.13-1.52-1.71-2.3-.76-.25.3-.68.35-.96.08l-1.48-1.46c-.6-.59-1.58-.55-2.12.1l-.2.24c-1,1.2-2.8,1.35-4.02.37-2.91-2.35-3.93-5.71-4.28-9.4-.13-1.35.84-2.56,2.19-2.72l7.32-.88-1.49,5.15c-.26.89.07,1.85.82,2.41l9.55,7.05c.23.17.11.54-.18.54Z"/>
</svg>